<svg id="logo" xmlns="http://www.w3.org/2000/svg" width="104.332" height="72.799" viewBox="0 0 104.332 72.799">
  <g id="Capa_1" data-name="Capa 1">
    <path id="Trazado_14" data-name="Trazado 14" d="M37.36,58.061H47.671L80.224,25.508,75.041,20.38Z" transform="translate(-7.797 -4.253)" fill="#60402b"/>
    <path id="Trazado_15" data-name="Trazado 15" d="M104.548,45.458,99.365,40.33l-21.9,21.9H87.781Z" transform="translate(-16.168 -8.417)" fill="#60402b"/>
    <path id="Trazado_16" data-name="Trazado 16" d="M87.2,30.35,57.41,60.142H67.728L92.385,35.486Z" transform="translate(-11.982 -6.334)" fill="#60402b"/>
    <path id="Trazado_17" data-name="Trazado 17" d="M128.87,65.406l-5.183-5.136-6.117,6.117h10.319Z" transform="translate(-24.537 -12.579)" fill="#60402b"/>
    <path id="Trazado_18" data-name="Trazado 18" d="M116.709,55.428,111.526,50.3,97.52,64.306h10.311Z" transform="translate(-20.353 -10.498)" fill="#60402b"/>
    <rect id="Rectángulo_8" data-name="Rectángulo 8" width="7.296" height="17.875" transform="translate(15.867 36.673) rotate(-45)" fill="#60402b"/>
    <rect id="Rectángulo_9" data-name="Rectángulo 9" width="7.296" height="17.875" transform="translate(23.803 28.733) rotate(-45)" fill="#60402b"/>
    <rect id="Rectángulo_10" data-name="Rectángulo 10" width="7.296" height="17.875" transform="translate(31.735 20.806) rotate(-45)" fill="#60402b"/>
    <path id="Trazado_19" data-name="Trazado 19" d="M15.181,49.85,10.03,55.009l9.2,9.2H26.1l1.725-1.725Z" transform="translate(-2.093 -10.404)" fill="#60402b"/>
    <path id="Trazado_20" data-name="Trazado 20" d="M5.159,59.88,0,65.039l1.266,1.266H11.585Z" transform="translate(0 -12.497)" fill="#60402b"/>
    <path id="Trazado_21" data-name="Trazado 21" d="M69.708,6.56,66.345.1,63.876,0,61.416.095,58.1,6.56Z" transform="translate(-12.126)" fill="#60402b"/>
    <path id="Trazado_22" data-name="Trazado 22" d="M71.906,13.12H52.615L50.13,15.6,62.775,28.242,74.913,16.1Z" transform="translate(-10.462 -2.738)" fill="#60402b"/>
    <path id="Trazado_23" data-name="Trazado 23" d="M49.545,74H40.524L38.15,88.243h2.374l2.374-9.97h4.273l2.374,9.97h2.374Z" transform="translate(-7.962 -15.444)" fill="#3f8756"/>
    <path id="Trazado_24" data-name="Trazado 24" d="M125.845,74h-9.021L114.45,88.243h2.374l2.374-9.97h4.273l2.374,9.97h2.374Z" transform="translate(-23.886 -15.444)" fill="#3f8756"/>
    <path id="Trazado_25" data-name="Trazado 25" d="M87.695,74l-2.374,7.2H81.048L78.674,74H76.3l2.374,10.287h9.021L90.069,74Z" transform="translate(-15.924 -15.444)" fill="#3f8756"/>
    <rect id="Rectángulo_11" data-name="Rectángulo 11" width="3.165" height="3.956" transform="translate(65.44 68.843)" fill="#3f8756"/>
    <path id="Trazado_26" data-name="Trazado 26" d="M11.395,74H8.918l-.791,1.583H5.753L4.961,74H2.374L0,88.243H2.374l2.374-9.97H9.021l2.374,9.97h2.374Z" transform="translate(0 -15.444)" fill="#3f8756"/>
  </g>
</svg>
